<svg id="visual" viewBox="0 0 900 600" width="900" height="600" xmlns="http://www.w3.org/2000/svg" xmlns:xlink="http://www.w3.org/1999/xlink" version="1.1"><path d="M384 0L390.5 20C397 40 410 80 428.7 120C447.3 160 471.7 200 468.3 240C465 280 434 320 425.7 360C417.3 400 431.7 440 448.8 480C466 520 486 560 496 580L506 600L0 600L0 580C0 560 0 520 0 480C0 440 0 400 0 360C0 320 0 280 0 240C0 200 0 160 0 120C0 80 0 40 0 20L0 0Z" fill="#181a1c" stroke-linecap="round" stroke-linejoin="miter"></path></svg>