<?xml version="1.0" standalone="no"?>
<!DOCTYPE svg PUBLIC "-//W3C//DTD SVG 20010904//EN"
 "http://www.w3.org/TR/2001/REC-SVG-20010904/DTD/svg10.dtd">
<svg version="1.0" xmlns="http://www.w3.org/2000/svg"
 width="363.000000pt" height="363.000000pt" viewBox="0 0 363.000000 363.000000"
 preserveAspectRatio="xMidYMid meet">

<g transform="translate(0.000000,363.000000) scale(0.100000,-0.100000)"
fill="var(--opal)" stroke="none">
<path d="M1535 3603 c-231 -33 -552 -144 -640 -222 -11 -10 -42 -31 -70 -46
-106 -60 -230 -168 -333 -289 -145 -171 -240 -314 -262 -396 -6 -22 -24 -72
-41 -112 -60 -144 -86 -233 -93 -318 -4 -47 -13 -125 -20 -175 -9 -60 -12
-175 -11 -345 3 -240 4 -260 28 -340 14 -47 33 -116 41 -153 17 -75 91 -260
137 -347 54 -101 160 -216 316 -341 127 -102 169 -130 298 -193 178 -88 233
-113 271 -122 16 -4 40 -12 54 -19 14 -7 45 -21 70 -30 25 -9 60 -23 78 -31
18 -8 37 -14 42 -14 6 0 29 -9 53 -19 23 -11 100 -30 171 -42 l130 -22 30 37
c21 25 39 36 57 36 18 0 38 13 63 41 46 51 55 74 47 124 -5 34 -14 45 -61 77
-30 20 -64 36 -75 35 -33 -3 -137 14 -180 28 -133 45 -292 108 -346 138 -35
19 -77 37 -94 41 -16 3 -52 17 -80 31 -27 13 -64 29 -80 35 -17 6 -53 32 -80
59 -28 26 -68 59 -91 74 -22 14 -56 40 -75 59 -81 80 -196 229 -205 266 -4 15
-22 57 -40 93 -18 37 -38 89 -44 115 -7 27 -20 72 -30 99 -40 112 -46 157 -44
315 4 313 34 651 64 715 6 11 21 49 34 85 44 119 78 184 125 240 26 30 65 80
88 110 46 61 118 134 175 177 119 91 149 112 203 140 92 48 419 154 495 160
59 5 122 -2 445 -48 39 -5 97 -16 130 -24 33 -8 76 -17 95 -20 29 -6 216 -62
312 -94 55 -18 259 -154 290 -193 46 -58 124 -190 138 -234 7 -21 23 -59 36
-85 46 -91 57 -160 51 -324 -5 -139 -7 -155 -36 -222 -17 -40 -31 -79 -31 -88
0 -32 -59 -192 -94 -253 -20 -35 -36 -66 -36 -69 0 -2 -13 -24 -30 -48 -16
-24 -30 -46 -30 -50 0 -8 -36 -56 -108 -147 -57 -72 -97 -102 -149 -111 -18
-4 -57 -23 -87 -43 -47 -31 -67 -37 -138 -45 -46 -5 -94 -11 -108 -14 -14 -3
-86 -9 -160 -15 -164 -12 -305 4 -453 48 -103 32 -222 101 -233 135 -3 11 -28
43 -54 72 -27 29 -67 91 -89 137 -23 45 -52 100 -65 121 -33 54 -60 183 -52
244 21 152 26 182 36 218 7 22 16 45 20 50 4 6 13 28 19 50 37 123 79 189 180
280 120 108 120 108 335 103 161 -5 189 -8 251 -30 81 -29 155 -65 155 -76 0
-4 19 -26 41 -49 27 -29 35 -43 25 -43 -18 0 -22 -25 -6 -35 6 -4 19 -24 30
-45 40 -79 15 -280 -53 -420 -36 -73 -103 -135 -166 -154 -117 -34 -191 -8
-231 80 -38 88 -21 142 81 251 48 50 49 53 43 100 -9 71 -46 103 -120 103
-149 0 -222 -54 -323 -240 -36 -66 -41 -83 -41 -141 0 -37 7 -86 15 -110 67
-189 281 -341 480 -343 93 0 200 17 245 39 94 46 211 122 224 144 5 9 24 30
41 46 49 46 98 132 124 215 13 41 27 85 32 98 13 35 31 252 24 297 -7 48 -47
170 -71 217 -19 38 -161 218 -172 218 -4 0 -25 16 -47 35 -22 19 -74 49 -115
66 -41 17 -100 42 -130 56 -63 29 -181 41 -416 42 -200 1 -332 -24 -417 -78
-34 -22 -67 -45 -74 -50 -7 -6 -16 -11 -20 -11 -5 0 -55 -47 -111 -105 -104
-106 -113 -122 -163 -264 -10 -30 -24 -60 -31 -68 -6 -8 -17 -47 -24 -86 -7
-40 -24 -110 -38 -157 -34 -113 -50 -259 -43 -405 7 -141 24 -207 79 -293 22
-35 48 -83 58 -106 25 -59 108 -177 150 -213 129 -111 360 -240 490 -273 255
-65 386 -81 615 -75 83 1 191 10 240 20 134 24 319 91 395 141 69 46 256 223
306 288 16 22 34 45 40 51 7 6 22 31 34 56 13 24 35 62 50 84 34 49 94 167
120 238 26 65 32 81 58 138 11 25 23 68 27 95 4 27 18 83 33 124 23 68 25 90
26 240 1 154 -1 171 -27 252 -29 93 -118 284 -167 358 -16 25 -39 63 -51 85
-33 60 -200 219 -298 282 -47 31 -120 71 -161 88 -41 18 -106 47 -145 65 -87
41 -173 66 -256 75 -35 3 -113 17 -174 30 -150 32 -189 38 -265 40 -36 1 -121
9 -190 18 -126 17 -140 17 -195 10z"/>
</g>
</svg>
