<?xml version="1.0" standalone="no"?>
<!DOCTYPE svg PUBLIC "-//W3C//DTD SVG 20010904//EN"
 "http://www.w3.org/TR/2001/REC-SVG-20010904/DTD/svg10.dtd">
<svg version="1.0" xmlns="http://www.w3.org/2000/svg"
 width="532.000000pt" height="353.000000pt" viewBox="0 0 532.000000 353.000000"
 preserveAspectRatio="xMidYMid meet">

<g transform="translate(0.000000,353.000000) scale(0.100000,-0.100000)"
fill="#000000" stroke="none">
<path d="M0 1765 l0 -1765 1765 0 1765 0 0 58 0 59 178 6 c278 10 460 55 697
172 165 82 293 173 420 300 407 404 575 965 454 1520 -105 485 -430 906 -864
1120 -251 123 -473 176 -752 179 l-133 1 0 58 0 57 -1765 0 -1765 0 0 -1765z
m390 960 l0 -734 -42 19 c-53 24 -158 26 -218 5 -23 -8 -46 -15 -51 -15 -10 0
-12 1443 -2 1453 3 4 75 7 160 7 l153 0 0 -735z m3070 -960 c0 -1123 -3 -1695
-10 -1695 -6 0 -28 18 -49 39 -41 41 -52 70 -90 228 -33 139 -72 198 -162 248
-48 27 -63 30 -139 29 -77 0 -95 -4 -202 -47 -145 -59 -197 -62 -275 -17 -72
41 -99 87 -134 226 -47 183 -90 248 -198 298 -80 36 -164 29 -301 -25 -63 -26
-132 -49 -152 -53 -79 -14 -185 37 -225 110 -12 21 -35 92 -52 156 -36 142
-57 184 -116 236 -56 49 -119 72 -197 72 l-58 0 0 945 0 945 1180 0 1180 0 0
-1695z m926 1280 c238 -130 450 -345 578 -586 57 -107 105 -221 112 -270 6
-35 4 -39 -21 -45 -14 -3 -30 -3 -35 2 -5 5 -22 46 -39 92 -40 110 -117 256
-188 353 -110 154 -325 339 -490 423 -35 17 -53 33 -53 45 0 45 34 41 136 -14z
m-15 -283 c282 -184 479 -515 521 -874 13 -106 5 -132 -36 -126 -19 3 -22 14
-33 105 -33 287 -144 518 -342 713 -53 53 -122 113 -154 134 -32 21 -61 44
-64 52 -5 14 13 44 27 44 4 0 41 -22 81 -48z m-328 -97 c152 -61 330 -201 422
-329 97 -137 162 -313 172 -467 6 -83 5 -87 -17 -94 -12 -4 -26 -3 -31 2 -5 5
-16 54 -24 109 -19 127 -38 191 -82 278 -101 202 -236 332 -438 427 -46 22
-97 42 -114 45 -32 7 -44 24 -34 50 8 21 63 13 146 -21z m-25 -264 c151 -77
279 -233 337 -409 19 -59 13 -76 -25 -70 -18 2 -27 17 -44 68 -12 36 -35 88
-51 115 -39 68 -157 184 -227 224 -45 25 -58 38 -58 56 0 19 7 29 28 34 1 1
20 -8 40 -18z m-209 -190 c87 -27 139 -61 208 -135 199 -212 141 -569 -118
-719 -92 -53 -222 -72 -325 -46 l-44 11 0 443 0 443 38 10 c63 17 175 14 241
-7z m-3466 -284 l47 -28 0 -920 0 -920 -157 3 -158 3 -3 927 -2 926 57 21 c79
28 154 24 216 -12z m914 -464 c75 -35 110 -93 142 -233 39 -168 88 -243 189
-290 97 -46 156 -39 375 44 110 42 192 33 265 -29 44 -37 67 -84 96 -202 42
-171 73 -224 159 -273 109 -62 172 -60 355 11 135 53 182 58 250 29 54 -23
105 -73 124 -119 6 -14 24 -78 39 -141 18 -69 41 -134 59 -162 l29 -48 -1124
0 -1125 0 0 714 c0 672 1 715 18 720 28 8 114 -4 149 -21z"/>
<path d="M2353 2850 l-392 -5 247 -472 c136 -260 250 -469 254 -465 4 4 102
183 218 397 116 215 231 427 256 473 l45 82 -118 -2 c-65 -2 -294 -5 -510 -8z
m432 -182 c-36 -68 -122 -232 -193 -365 -70 -134 -130 -243 -133 -243 -3 0
-90 160 -193 356 -144 274 -185 359 -174 365 7 5 181 9 386 9 l373 0 -66 -122z"/>
<path d="M3635 1828 c-28 -16 -35 -28 -35 -65 0 -41 42 -77 80 -68 58 14 78
78 35 120 -26 27 -49 31 -80 13z"/>
</g>
</svg>
